<?xml version="1.0" encoding="UTF-8" standalone="no"?>
<svg
   xmlns:dc="http://purl.org/dc/elements/1.1/"
   xmlns:cc="http://creativecommons.org/ns#"
   xmlns:rdf="http://www.w3.org/1999/02/22-rdf-syntax-ns#"
   xmlns:svg="http://www.w3.org/2000/svg"
   xmlns="http://www.w3.org/2000/svg"
   xmlns:sodipodi="http://sodipodi.sourceforge.net/DTD/sodipodi-0.dtd"
   xmlns:inkscape="http://www.inkscape.org/namespaces/inkscape"
   width="144.36317"
   height="144.41972"
   viewBox="0 0 115.49054 115.53578"
   version="1.1"
   id="svg2"
   inkscape:version="1.0.1 (3bc2e813f5, 2020-09-07)"
   sodipodi:docname="8020-Fractional-Profiles-1.svg">
  <metadata
     id="metadata102">
    <rdf:RDF>
      <cc:Work
         rdf:about="">
        <dc:format>image/svg+xml</dc:format>
        <dc:type
           rdf:resource="http://purl.org/dc/dcmitype/StillImage" />
        <dc:title></dc:title>
      </cc:Work>
    </rdf:RDF>
  </metadata>
  <defs
     id="defs100" />
  <sodipodi:namedview
     pagecolor="#ffffff"
     bordercolor="#666666"
     borderopacity="1"
     objecttolerance="10"
     gridtolerance="10"
     guidetolerance="10"
     inkscape:pageopacity="0"
     inkscape:pageshadow="2"
     inkscape:window-width="1362"
     inkscape:window-height="728"
     id="namedview98"
     showgrid="false"
     units="cm"
     fit-margin-top="0"
     fit-margin-bottom="0"
     fit-margin-right="0"
     fit-margin-left="0"
     inkscape:zoom="1.0733333"
     inkscape:cx="219.5859"
     inkscape:cy="72.663211"
     inkscape:window-x="0"
     inkscape:window-y="38"
     inkscape:window-maximized="1"
     inkscape:current-layer="svg2"
     inkscape:document-rotation="0"
     lock-margins="true" />
  <path
     style="fill:#000000"
     inkscape:connector-curvature="0"
     id="path62"
     d="m 0.06,10.32578 c 0.18,-5.44 4.59,-10.65000202 10.32,-10.31000202 0.66,0.980002 1.84,3.46000202 3.26,1.87000202 0.31,-0.44 0.92,-1.32000202 1.23,-1.76000202 4.9,-0.08 9.8,0.1 14.69,0.44 C 30.26,1.64578 30.81,2.96578 32.38,2.60578 c 0.36,-0.53 1.08,-1.59 1.44,-2.12000202 2.73,0.17 5.84,-0.35 8.15,1.48000202 1.28,0.87 1.55,2.5 2.14,3.83 -0.5,2.1 -0.99,4.38 -2.98,5.59 -3.88,1.08 -7.92,-0.14 -11.86,0.08 -2.96,0.09 -5.8,4.03 -3.32,6.51 5.22,5.37 10.52,10.7 15.92,15.9 5.41,4.7 12.97,2.92 19.5,3.27 4.79,0.38 9.97,-0.66 13.35,-4.33 5.13,-5.25 10.559996,-10.24 15.469996,-15.69 1.22,-2.45 -1.04,-4.56 -2.96,-5.71 -3.929996,-0.11 -7.859996,0.76 -11.779996,0.22 -3.95,-0.97 -5.43,-6.76 -2.32,-9.45 2.41,-2.04000202 5.76,-1.59000202 8.68,-1.65000202 0.26,2.76000202 3.779996,2.70000202 3.969996,-0.06 4.99,-0.1 9.97,-0.51 14.970004,-0.34 0.3,0.45 0.9,1.36000202 1.2,1.81000202 1.2,1.94 2.53,-1.09000002 3.09,-1.87000202 5.57,-0.28 10.51,4.58000202 10.45,10.12000202 -1.14,0.81 -2.79,1.57 -2.14,3.29 0.48,0.26 1.44,0.77 1.92,1.02 -0.03,4.96 0.22,9.93 -0.36,14.86 -0.71,0.5 -2.11,1.5 -2.81,2.01 0.66,0.61 2,1.84 2.67,2.45 -0.21,3 0.62,6.9 -2.19,8.95 -3.18,2.38 -8.14,0.64 -9.07,-3.25 -0.03,-3.95 0.53,-7.91 0.18,-11.86 -0.84,-2.67 -4.620004,-3.39 -6.500004,-1.43 -4.88,4.8 -9.67,9.7 -14.549996,14.51 -2.94,2.72 -4.58,6.75 -4.31,10.76 -0.01,7.51 -1.78,16.25 3.62,22.47 4.879996,5.07 9.909996,10.01 14.919996,14.97 1.98,2.06 6.180004,1.51 6.860004,-1.45 0.12,-3.33 0.03,-6.66 -0.23,-9.98 -0.33,-2.34 1.05,-4.83 3.35,-5.54 2.73,-1.34 5.95,0.17 7.42,2.63 0.63,2.29 0.39,4.69 0.45,7.04 -0.84,0.64 -1.68,1.29 -2.51,1.95 0.78,0.95 1.6,1.87 2.79,2.3 0.3,4.87 0.41,9.76 0.2,14.64 -0.81,0.66 -1.54,1.39 -2.18,2.2 0.39,1.15 1.21,1.89 2.46,2.23 0.25,5.78 -4.96,10.4 -10.52,10.57 -0.06,-2.99 -3.96,-3.26 -4.1,-0.15 -4.980004,0.17 -9.950004,-0.46 -14.930004,-0.3 -0.65,-1.06 -1.139996,-2.5 -2.559996,-2.71 -0.41,0.62 -1.23,1.86 -1.64,2.48 -2.89,-0.62 -6.59,0.54 -8.73,-2.01 -2.94,-2.7 -1.43,-8.27 2.45,-9.18 3.64,-0.35 7.3,0 10.939996,0.16 3.06,0.13 5.48,-4.25 3.13,-6.45 -4.789996,-4.9 -9.699996,-9.68 -14.499996,-14.56 -2.46,-2.66 -5.97,-4.49 -9.64,-4.44 -5.01,-0.02 -10.01,0 -15.01,0 -3.44,-0.15 -6.85,1.41 -9.22,3.87 -5.18,5.24 -10.47,10.39 -15.62,15.67 -1.53,2.5 0.76,6.1 3.69,5.92 3.71,-0.18 7.46,-0.6 11.16,-0.07 4.41,1.32 4.84,8.46 0.6,10.3 -2.27,0.71 -4.74,0.43 -7.08,0.81 -0.82,-1.06 -1.45,-2.93 -3.15,-2.19 -0.31,0.6 -0.91,1.8 -1.21,2.4 -4.92,-0.15 -9.82,0.42 -14.74,0.34 -0.5,-1.12 -1.25,-2.05 -2.24,-2.77 -1.21,1.06 -2.13,3.64 -4.2,2.58 -4.85,-0.87 -8.07,-5.54 -8.35,-10.29 0.62,-0.37 1.84,-1.1 2.45,-1.47 0.38,-1.74 -1.3,-2.09 -2.44,-2.74 0.02,-5 0.53,-9.99 0.39,-14.99 2.88,0.17 3.04,-3.79 0.18,-4.01 0.3,-3.2 -0.63,-7.52 2.81,-9.38 3.28,-2.22 8.26,0.11 8.55,4.1 -0.07,3.65 -0.43,7.3 -0.35,10.96 0.86,3.02 5.17,3.71 7.14,1.37 4.37,-4.28 8.64,-8.66 12.99,-12.96 2.79,-2.74 5.26,-6.26 5.31,-10.31 0.02,-5.03 0,-10.05 0.01,-15.07 0.1,-4.1 -2.14,-7.88 -5.03,-10.63 -4.54,-4.47 -8.99,-9.03 -13.54,-13.49 -1.95,-2.01 -5.94,-1.4 -6.74,1.43 -0.61,3.89 0.58,7.95 0.03,11.84 -0.66,4.48 -7.15,5.71 -9.75,2.28 -1.92,-2.26 -1.03,-5.44 -1.48,-8.13 0.92,-0.76 3.6,-1.83 1.76,-3.3 -0.45,-0.27 -1.36,-0.8 -1.82,-1.06 0,-4.87 -0.4,-9.72 -0.48,-14.59 0.88,-0.87 2.72,-1.28 2.4,-2.86 -0.59,-0.4 -1.76,-1.21 -2.34,-1.61 m 1.16,-1.09 c 1.8,1.15 2.72,2.82 2.25,4.97 -0.55,0.3 -1.66,0.91 -2.21,1.21 0.16,4.05 -0.09,8.13 0.32,12.16 0.72,1.41 1.93,2.51 2.81,3.83 -2.97,3.01 -3.61,8.3 -0.03,11.11 1.35,0 2.71,0 4.06,-0.01 1.01,-1.22 2.33,-2.39 2.28,-4.13 -0.23,-3.71 -0.28,-7.43 -0.37,-11.15 1.53,-3.15 5.76,-4.5 8.58,-2.16 4.86,4.76 9.62,9.63 14.47,14.42 2.99,2.81 5.06,6.8 4.91,10.98 -0.05,5.42 0.05,10.84 -0.05,16.26 -0.53,3.89 -2.78,7.35 -5.57,10.03 -4.37,4.31 -8.67,8.69 -13.03,13 -2.62,2.91 -8.54,1.94 -9.2,-2.22 -0.19,-3.66 0.21,-7.31 0.23,-10.96 -0.18,-3.57 -5.41,-5.26 -7.55,-2.32 -1.63,1.56 -0.99,4.08 -1.13,6.09 0.98,1.21 2.73,2.62 1.83,4.38 -0.41,1.42 -2.48,1.85 -2.33,3.49 -0.18,3.77 -0.23,7.56 -0.16,11.34 1.21,1.17 3.13,2.84 1.94,4.71 -0.5,0.44 -1.52,1.3 -2.03,1.74 0.96,3.95 3.76,7.61 8.02,8.17 1.34,-2.95 5.36,-3.17 6.59,0 4.16,0.07 8.29,-0.44 12.45,-0.36 0.99,-0.75 1.49,-2.65 3.01,-2.37 1.62,-0.46 2.48,1.28 3.57,2.06 2.36,-0.02 5.14,0.34 6.86,-1.69 1.89,-2.16 0.84,-5.68 -1.68,-6.85 -3.57,-0.47 -7.17,-0.07 -10.74,0.12 -3.99,0.37 -7.2,-4.9 -4.66,-8.14 5.12,-5.28 10.4,-10.4 15.57,-15.63 2.59,-2.74 6.35,-4.2 10.1,-4.18 5.01,0 10.02,-0.01 15.03,0.01 3.48,0.04 7.01,1.3 9.48,3.81 5.17,5.19 10.38,10.34 15.519996,15.55 3.14,2.92 0.19,8.8 -3.93,8.59 -3.569996,-0.18 -7.159996,-0.55 -10.739996,-0.2 -2.75,1 -4.12,4.94 -1.86,7.1 2.4,2 7.08,2.66 8.69,-0.62 1.93,-0.21 3.629996,0.5 4.389996,2.4 4.31,-0.05 8.61,0.56 12.92,0.31 0.610004,-3 5.640004,-3.04 6.090004,0.08 4.29,-0.55 7.47,-3.97 8.49,-8.03 -1.19,-0.82 -2.28,-1.81 -2.77,-3.21 0.22,-1.44 1.56,-2.3 2.34,-3.41 0.14,-4.19 0.19,-8.4 -0.26,-12.57 -3.09,-1.14 -2.71,-4.95 -0.25,-6.5 -0.03,-2.45 0.53,-5.7 -2.09,-7.06 -2.48,-1.71 -6.25,0.18 -6.65,3.07 0.15,3.84 0.51,7.71 0.2,11.55 -1.1,3.73 -6.400004,4.57 -8.920004,1.8 -5.16,-5.15 -10.37,-10.25 -15.429996,-15.49 -5.28,-6.75 -3.63,-15.89 -3.26,-23.82 -0.28,-4.01 1.47,-7.97 4.39,-10.68 4.879996,-4.81 9.669996,-9.71 14.559996,-14.51 2.55,-2.52 7.900004,-1.54 8.660004,2.18 0.47,3.92 -0.29,7.87 -0.11,11.78 0.52,3.3 5.31,4.58 7.4,2.08 1.84,-1.63 1.05,-4.32 1.26,-6.47 -0.79,-1.09 -1.98,-1.99 -2.19,-3.41 0.05,-1.54 1.59,-2.27 2.44,-3.33 0.52,-4.13 0.28,-8.3 0.28,-12.45 -0.98,-0.99 -1.82,-2.09 -2.57,-3.25 0.84,-1.15 1.81,-2.19 2.71,-3.3 -0.52,-4.08 -4.14,-7.48 -8.23,-7.86 -0.42,0.56 -1.27,1.66 -1.7,2.21 -0.63,-0.01 -1.89,-0.02 -2.52,-0.03 -1.02,-0.77 -1.740004,-2.42 -3.270004,-2.08 -3.85,-0.09 -7.69,0.1 -11.54,0.1 -1.03,2.91 -4.909996,3.53 -6.119996,0.3 -2.47,0.07 -5.62,-0.26 -7.22,2.05 -2.04,2.28 -0.22,6.59 2.81,6.68 3.93,0.16 7.86,-0.12 11.779996,-0.06 1.4,1.08 3.17,2.12 3.39,4.07 0.75,2.24 -0.77,4.33 -2.36,5.74 -5.109996,4.93 -9.919996,10.17 -15.159996,14.95 -5.55,4.52 -13.07,2.86 -19.64,3.18 -4.88,0.32 -10.26,-0.45 -13.87,-4.06 -5.14,-5.17 -10.34,-10.29 -15.46,-15.49 -2.89,-2.66 -0.56,-8.12 3.18,-8.35 4.07,-0.14 8.14,0.19 12.21,0.02 1.74,-1.67 3,-4.33 1.68,-6.63 -1.6,-2.25 -4.69,-1.97 -7.11,-2.21 -1.24,1.91 -3.36,2.54 -5.49,1.87 -0.23,-0.51 -0.68,-1.54 -0.9,-2.05 -4.25,-0.06 -8.5,-0.17 -12.75,-0.1 -1.08,1.62 -2.68,2.37 -4.62,2.22 -0.66,-0.82 -1.33,-1.64 -2,-2.45 -4.19,0.64 -6.96,4.19 -8.02,8.08 z" />
  <path
     style="fill:#000000"
     inkscape:connector-curvature="0"
     id="path80"
     d="m 54.92,46.10578 c 4.74,-1.07 10.3,0.63 13.03,4.8 1.88,2.75 2.01,6.28 1.58,9.48 -0.85,5.61 -6.63,9.63 -12.17,9.11 -6,0.27 -11.66,-4.91 -11.63,-10.98 -0.67,-5.73 3.39,-11.54 9.19,-12.41 m -1.35,1.65 c -8.67,2.75 -8.88,16.88 -0.21,19.72 6.66,3.26 16.07,-2.24 15.13,-10 0.58,-7.55 -8.33,-12.51 -14.92,-9.72 z" />
</svg>
