<?xml version="1.0" encoding="UTF-8" standalone="no"?>
<svg
   xmlns:dc="http://purl.org/dc/elements/1.1/"
   xmlns:cc="http://creativecommons.org/ns#"
   xmlns:rdf="http://www.w3.org/1999/02/22-rdf-syntax-ns#"
   xmlns:svg="http://www.w3.org/2000/svg"
   xmlns="http://www.w3.org/2000/svg"
   xmlns:sodipodi="http://sodipodi.sourceforge.net/DTD/sodipodi-0.dtd"
   xmlns:inkscape="http://www.inkscape.org/namespaces/inkscape"
   inkscape:version="1.0 (4035a4fb49, 2020-05-01)"
   sodipodi:docname="hand_layer2.svg"
   viewBox="0 0 2133.3333 2133.3333"
   height="2133.3333"
   width="2133.3333"
   id="svg883"
   version="1.1">
  <metadata
     id="metadata889">
    <rdf:RDF>
      <cc:Work
         rdf:about="">
        <dc:format>image/svg+xml</dc:format>
        <dc:type
           rdf:resource="http://purl.org/dc/dcmitype/StillImage" />
        <dc:title></dc:title>
      </cc:Work>
    </rdf:RDF>
  </metadata>
  <defs
     id="defs887" />
  <sodipodi:namedview
     inkscape:current-layer="g891"
     inkscape:window-maximized="1"
     inkscape:window-y="38"
     inkscape:window-x="0"
     inkscape:cy="1066.6666"
     inkscape:cx="1066.6666"
     inkscape:zoom="0.25734376"
     showgrid="false"
     id="namedview885"
     inkscape:window-height="728"
     inkscape:window-width="1362"
     inkscape:pageshadow="2"
     inkscape:pageopacity="0"
     guidetolerance="10"
     gridtolerance="10"
     objecttolerance="10"
     borderopacity="1"
     bordercolor="#666666"
     pagecolor="#ffffff" />
  <g
     id="g891"
     inkscape:label="Image"
     inkscape:groupmode="layer">
    <path
       id="path895"
       d="m 1140.0797,1481.6282 c -5.8677,-2.6506 -12.2116,-8.6063 -15.2514,-14.3182 -2.9417,-5.5276 -3.5957,-22.7198 -1.9005,-49.9584 5.4306,-87.2595 25.828,-163.2065 63.2994,-235.6876 26.3687,-51.0046 64.6092,-99.9624 103.4847,-132.4873 l 10.1996,-8.5334 -85.5159,-0.6262 c -74.0513,-0.5423 -87.0041,-0.8735 -96.617,-2.4704 -18.6709,-3.1016 -32.344,-8.1613 -46.4632,-17.1933 -3.1899,-2.0405 -6.0179,-3.7101 -6.2844,-3.7101 -0.2665,0 -2.2944,2.52 -4.5064,5.6 -5.1847,7.219 -24.5517,27.0802 -33.4966,34.3514 -52.76865,42.8947 -124.19303,52.7827 -185.70881,25.7098 -25.3297,-11.1477 -51.29323,-31.5947 -68.09311,-53.6254 l -5.78699,-7.5889 -6.45378,8.7099 c -24.31312,32.8125 -62.46648,56.7323 -105.17224,65.9364 -15.36948,3.3125 -54.4217,3.5972 -70.93333,0.5171 -28.31031,-5.281 -59.44854,-19.8195 -80,-37.3523 l -4.26667,-3.6399 -0.17134,-61.17567 c -0.11432,-40.8226 0.15214,-58.6915 0.80093,-53.709 5.40338,41.4963 34.50125,77.70797 73.66236,91.67127 26.01768,9.2768 60.33706,9.4266 86.24138,0.3763 40.42294,-14.1228 69.34481,-50.40467 74.62827,-93.61967 0.71666,-5.8617 1.10727,-64.9097 1.11136,-168 0.006,-172.39739 -0.12363,-168.20608 5.87653,-188.82205 8.83915,-30.37042 29.45718,-58.00399 56.51717,-75.74776 9.13485,-5.9899 19.73334,-11.65857 19.73334,-10.5545 0,0.37009 -2.20023,4.203 -4.88939,8.51758 -6.09708,9.78236 -10.47055,20.10585 -14.13697,33.36997 l -2.84031,10.27551 -0.31028,189.33335 c -0.21578,131.6648 0.0426,192.0949 0.84796,198.4 1.72811,13.5274 4.82763,23.7426 11.16592,36.8 12.03465,24.7923 29.63746,42.39507 54.42973,54.42967 18.86475,9.1574 37.70417,13.0843 57.06667,11.8953 30.47352,-1.8715 55.94401,-13.5261 77.40397,-35.418 11.40803,-11.63777 20.63353,-24.45717 19.08893,-26.52547 -0.5645,-0.7557 -4.2605,-5.6507 -8.2135,-10.8778 -7.8364,-10.3621 -19.19183,-31.516 -23.71056,-44.1704 -7.21955,-20.2178 -12.01257,-50.9342 -10.8332,-69.4254 1.47803,-23.1738 7.43296,-45.5152 17.74507,-66.5746 7.73022,-15.7867 14.38549,-25.5459 28.80629,-42.2413 16.5716,-19.1855 32.9777,-31.7187 55.7753,-42.6088 10.8681,-5.1916 35.0177,-13.7719 40.2044,-14.2844 1.4666,-0.145 7.2266,-0.8461 12.8,-1.5581 7.7319,-0.9877 60.8155,-1.21 223.9999,-0.9378 l 213.8667,0.3566 12.8348,2.8645 c 32.2208,7.1912 62.7205,21.3904 87.4319,40.7044 11.7606,9.1917 25.2835,23.4328 36.5064,38.445 15.8897,21.2545 16.6073,23.393 3.7773,11.2579 -16.7162,-15.8108 -33.7198,-25.3007 -55.971,-31.2377 l -8.8461,-2.3603 h -254.9333 -254.9333 l -10.493,2.8955 c -12.2483,3.3798 -29.2853,11.336 -39.0338,18.2286 -34.2222,24.1959 -53.8288,67.1518 -49.2447,107.8896 5.5915,49.6918 38.4065,88.5887 86.6187,102.6727 l 10.0195,2.9269 177.0666,0.56 177.0667,0.56 5.6078,2.5348 c 11.7366,5.3048 17.5424,17.3089 15.0084,31.03137 -1.3641,7.3869 -3.8642,12.27 -8.9663,17.5121 -6.9551,7.1462 -11.2988,8.41 -31.9166,9.2865 -25.3533,1.0779 -40.9219,3.9586 -62.9333,11.6447 -53.8511,18.8043 -106.7649,64.0341 -144.479,123.4982 -29.798,46.9828 -51.9094,103.3232 -63.9697,162.9967 -6.8805,34.044 -9.9777,61.5994 -11.6777,103.8956 -0.9367,23.3039 -1.6459,25.819 -9.3833,33.275 -5.9289,5.7134 -12.3187,8.2782 -20.6237,8.2782 -4.6852,0 -8.4897,-0.703 -11.7333,-2.1683 z"
       style="fill:#000000;stroke-width:1.06667" />
  </g>
</svg>
