<?xml version="1.0" standalone="no"?>
<!DOCTYPE svg PUBLIC "-//W3C//DTD SVG 1.1//EN" "http://www.w3.org/Graphics/SVG/1.1/DTD/svg11.dtd">
<svg width="180" height="60" viewBox="0 -60 180 60" xmlns="http://www.w3.org/2000/svg" version="1.1">
<title>OpenSCAD Model</title>
<path d="
M 180,-60 L 0,-60 L 0,-0 L 180,-0 z
M 120,-3 L 120,-38 L 142,-38 L 142,-3 z
M 130.75,-29.948 L 130.007,-29.948 L 128.064,-29.535 L 126.25,-28.7272 L 124.643,-27.5599 L 123.314,-26.084
 L 122.321,-24.364 L 121.708,-22.4752 L 121.526,-20.75 L 130.75,-20.75 z
M 140.292,-22.4752 L 139.679,-24.364 L 138.686,-26.084 L 137.357,-27.5599 L 135.75,-28.7272 L 133.936,-29.535
 L 131.993,-29.948 L 131.25,-29.948 L 131.25,-20.75 L 140.474,-20.75 z
M 133.936,-11.465 L 135.75,-12.2728 L 137.357,-13.4401 L 138.686,-14.916 L 139.679,-16.636 L 140.292,-18.5248
 L 140.474,-20.25 L 131.25,-20.25 L 131.25,-11.052 L 131.993,-11.052 z
M 130.75,-20.25 L 121.526,-20.25 L 121.708,-18.5248 L 122.321,-16.636 L 123.314,-14.916 L 124.643,-13.4401
 L 126.25,-12.2728 L 128.064,-11.465 L 130.007,-11.052 L 130.75,-11.052 z
M 132.319,-9.008 L 131.953,-9.008 L 131.953,-8.659 L 132.319,-8.659 z
M 139.757,-6.03699 L 140.083,-6.34 L 140.285,-6.83199 L 140.352,-7.49799 L 140.291,-8.13124 L 140.106,-8.58299
 L 139.803,-8.85374 L 139.383,-8.94398 L 138.984,-8.87775 L 138.682,-8.67899 L 138.493,-8.36549 L 138.43,-7.95299
 L 138.488,-7.54825 L 138.661,-7.23199 L 138.932,-7.028 L 139.279,-6.95999 L 139.506,-6.98749 L 139.712,-7.06999
 L 139.88,-7.19899 L 139.99,-7.364 L 139.941,-6.88174 L 139.809,-6.52499 L 139.601,-6.30449 L 139.322,-6.23099
 L 139.014,-6.32024 L 138.838,-6.588 L 138.489,-6.53299 L 138.605,-6.26149 L 138.778,-6.077 L 139.014,-5.97125
 L 139.316,-5.936 z
M 139.133,-7.29524 L 138.954,-7.437 L 138.84,-7.661 L 138.802,-7.95299 L 138.84,-8.239 L 138.954,-8.459
 L 139.134,-8.59999 L 139.37,-8.64699 L 139.609,-8.59224 L 139.794,-8.42799 L 139.914,-8.17374 L 139.953,-7.849
 L 139.934,-7.6825 L 139.875,-7.53499 L 139.783,-7.4135 L 139.661,-7.323 L 139.52,-7.26674 L 139.366,-7.24799
 z
M 129.23,-7.25899 L 130.089,-6 L 130.517,-6 L 129.455,-7.51099 L 130.434,-8.87999 L 130.005,-8.87999
 L 129.231,-7.75 L 128.435,-8.87999 L 128.007,-8.87999 L 129.012,-7.49599 L 127.923,-6 L 128.352,-6
 z
M 123.304,-6.04449 L 123.645,-6.17799 L 123.926,-6.39499 L 124.134,-6.68999 L 124.264,-7.05199 L 124.307,-7.46999
 L 124.208,-8.06874 L 123.912,-8.51299 L 123.434,-8.78824 L 122.79,-8.87999 L 121.843,-8.87999 L 121.843,-6
 L 122.914,-6 z
M 122.231,-6.31099 L 122.231,-8.56898 L 122.781,-8.56898 L 123.268,-8.49849 L 123.625,-8.28699 L 123.844,-7.94225
 L 123.917,-7.46999 L 123.885,-7.13675 L 123.789,-6.851 L 123.633,-6.61974 L 123.422,-6.45 L 123.165,-6.34575
 L 122.869,-6.31099 z
M 138.083,-6.31099 L 137.387,-6.31099 L 137.387,-8.87999 L 137.05,-8.87999 L 136.373,-8.39299 L 136.373,-8.04799
 L 137.019,-8.53099 L 137.019,-6.31099 L 136.29,-6.31099 L 136.29,-6 L 138.083,-6 z
M 125.127,-7.92299 L 125.112,-8.53699 L 125.18,-8.312 L 125.294,-7.96399 L 126.043,-6 L 126.315,-6
 L 127.055,-7.96399 L 127.139,-8.21074 L 127.233,-8.53699 L 127.22,-8.23599 L 127.215,-7.92299 L 127.215,-6
 L 127.564,-6 L 127.564,-8.87999 L 127.066,-8.87999 L 126.292,-6.80699 L 126.248,-6.67099 L 126.206,-6.52599
 L 126.181,-6.42299 L 126.162,-6.50323 L 126.093,-6.75624 L 126.053,-6.881 L 125.291,-8.87999 L 124.781,-8.87999
 L 124.781,-6 L 125.127,-6 z
M 133.233,-7.27499 L 133.271,-7.56099 L 133.385,-7.77699 L 133.566,-7.91273 L 133.802,-7.95799 L 133.961,-7.94475
 L 134.076,-7.905 L 134.157,-7.83524 L 134.212,-7.73199 L 134.244,-7.58774 L 134.255,-7.39499 L 134.255,-6
 L 134.622,-6 L 134.622,-7.46599 L 134.58,-7.82149 L 134.454,-8.06 L 134.239,-8.19499 L 133.926,-8.23999
 L 133.7,-8.21625 L 133.514,-8.14499 L 133.359,-8.01749 L 133.223,-7.823 L 133.217,-7.823 L 133.203,-8.15799
 L 133.201,-8.17599 L 132.855,-8.17599 L 132.864,-8.01775 L 132.867,-7.711 L 132.867,-6 L 133.233,-6
 z
M 132.319,-8.17599 L 131.953,-8.17599 L 131.953,-6 L 132.319,-6 z
M 144,-3 L 144,-38 L 170,-38 L 170,-3 z
M 156.75,-29.7 L 157.25,-29.7 L 157.25,-20.75 L 167.474,-20.75 L 167.271,-22.6831 L 166.592,-24.7707
 L 165.495,-26.6717 L 164.026,-28.303 L 162.25,-29.5933 L 162,-29.7046 L 162,-31.7 L 152,-31.7
 L 152,-29.7046 L 151.75,-29.5933 L 149.974,-28.303 L 148.505,-26.6717 L 147.408,-24.7707 L 146.729,-22.6831
 L 146.526,-20.75 L 156.75,-20.75 z
M 156.75,-20.25 L 146.526,-20.25 L 146.729,-18.3169 L 147.408,-16.2293 L 148.505,-14.3283 L 149.974,-12.697
 L 151.75,-11.4067 L 153.755,-10.5139 L 155.902,-10.0575 L 156.75,-10.0575 z
M 160.245,-10.5139 L 162.25,-11.4067 L 164.026,-12.697 L 165.495,-14.3283 L 166.592,-16.2293 L 167.271,-18.3169
 L 167.474,-20.25 L 157.25,-20.25 L 157.25,-10.0575 L 158.098,-10.0575 z
M 165.321,-6.31099 L 163.828,-6.31099 L 163.909,-6.45799 L 164.027,-6.61099 L 164.189,-6.77625 L 164.399,-6.95999
 L 164.756,-7.265 L 164.974,-7.478 L 165.107,-7.64499 L 165.201,-7.812 L 165.258,-7.97949 L 165.277,-8.14799
 L 165.219,-8.48624 L 165.044,-8.737 L 164.762,-8.89224 L 164.379,-8.94398 L 164.021,-8.89325 L 163.734,-8.741
 L 163.536,-8.50299 L 163.442,-8.19499 L 163.816,-8.15999 L 163.874,-8.36349 L 163.993,-8.51599 L 164.166,-8.61124
 L 164.379,-8.64299 L 164.598,-8.60974 L 164.763,-8.50999 L 164.867,-8.34999 L 164.901,-8.13599 L 164.881,-7.96799
 L 164.82,-7.81799 L 164.728,-7.681 L 164.61,-7.54999 L 164.472,-7.42274 L 164.156,-7.1615 L 163.992,-7.017
 L 163.832,-6.85899 L 163.679,-6.683 L 163.542,-6.48474 L 163.426,-6.258 L 163.426,-6 L 165.321,-6
 z
M 148.059,-6.04449 L 148.4,-6.17799 L 148.681,-6.39499 L 148.889,-6.68999 L 149.019,-7.05199 L 149.062,-7.46999
 L 148.964,-8.06874 L 148.667,-8.51299 L 148.189,-8.78824 L 147.545,-8.87999 L 146.598,-8.87999 L 146.598,-6
 L 147.669,-6 z
M 146.986,-6.31099 L 146.986,-8.56898 L 147.536,-8.56898 L 148.024,-8.49849 L 148.38,-8.28699 L 148.599,-7.94225
 L 148.672,-7.46999 L 148.64,-7.13675 L 148.544,-6.851 L 148.389,-6.61974 L 148.177,-6.45 L 147.92,-6.34575
 L 147.624,-6.31099 z
M 167.59,-6.31099 L 166.894,-6.31099 L 166.894,-8.87999 L 166.557,-8.87999 L 165.88,-8.39299 L 165.88,-8.04799
 L 166.526,-8.53099 L 166.526,-6.31099 L 165.797,-6.31099 L 165.797,-6 L 167.59,-6 z
M 149.883,-7.92299 L 149.868,-8.53699 L 149.936,-8.312 L 150.05,-7.96399 L 150.799,-6 L 151.071,-6
 L 151.811,-7.96399 L 151.895,-8.21074 L 151.989,-8.53699 L 151.975,-8.23599 L 151.971,-7.92299 L 151.971,-6
 L 152.32,-6 L 152.32,-8.87999 L 151.822,-8.87999 L 151.048,-6.80699 L 151.004,-6.67099 L 150.962,-6.52599
 L 150.937,-6.42299 L 150.918,-6.50323 L 150.848,-6.75624 L 150.809,-6.881 L 150.047,-8.87999 L 149.537,-8.87999
 L 149.537,-6 L 149.883,-6 z
M 153.985,-7.25899 L 154.844,-6 L 155.272,-6 L 154.21,-7.51099 L 155.189,-8.87999 L 154.76,-8.87999
 L 153.986,-7.75 L 153.19,-8.87999 L 152.762,-8.87999 L 153.767,-7.49599 L 152.678,-6 L 153.107,-6
 z
M 161.898,-5.94826 L 162.081,-5.985 L 162.081,-6.254 L 161.959,-6.23299 L 161.87,-6.226 L 161.761,-6.24199
 L 161.69,-6.28999 L 161.651,-6.37849 L 161.639,-6.51399 L 161.639,-7.90999 L 162.045,-7.90999 L 162.045,-8.17599
 L 161.639,-8.17599 L 161.639,-8.68799 L 161.395,-8.68799 L 161.287,-8.17599 L 161.019,-8.17599 L 161.019,-7.90999
 L 161.273,-7.90999 L 161.273,-6.43599 L 161.382,-6.06099 L 161.712,-5.936 z
M 158.004,-6.00725 L 158.315,-6.22099 L 158.506,-6.58124 L 158.569,-7.09 L 158.51,-7.60175 L 158.331,-7.959
 L 158.027,-8.16974 L 157.59,-8.23999 L 156.851,-7.9525 L 156.605,-7.09 L 156.667,-6.59499 L 156.851,-6.23199
 L 157.156,-6.00999 L 157.578,-5.936 z
M 157.312,-6.26125 L 157.13,-6.42699 L 157.024,-6.70374 L 156.989,-7.09 L 157.025,-7.48299 L 157.132,-7.756
 L 157.32,-7.91649 L 157.596,-7.96999 L 157.869,-7.91774 L 158.05,-7.76099 L 158.151,-7.48874 L 158.185,-7.09
 L 158.15,-6.69499 L 158.044,-6.42 L 157.856,-6.25949 L 157.574,-6.20599 z
M 159.886,-5.9595 L 160.071,-6.03 L 160.227,-6.15799 L 160.363,-6.35199 L 160.369,-6.35199 L 160.383,-6.01775
 L 160.385,-6 L 160.73,-6 L 160.721,-6.15825 L 160.718,-6.465 L 160.718,-8.17599 L 160.353,-8.17599
 L 160.353,-6.90099 L 160.315,-6.61499 L 160.2,-6.39899 L 160.02,-6.26324 L 159.784,-6.21799 L 159.625,-6.23125
 L 159.509,-6.271 L 159.428,-6.34074 L 159.373,-6.44398 L 159.341,-6.58824 L 159.331,-6.78099 L 159.331,-8.17599
 L 158.963,-8.17599 L 158.963,-6.70999 L 159.005,-6.35449 L 159.13,-6.116 L 159.346,-5.981 L 159.66,-5.936
 z
M 17.0357,-21.0583 L 15.1632,-21.5199 L 13.4555,-22.4161 L 12.0119,-23.695 L 10.9164,-25.2822 L 10.2325,-27.0855
 L 10,-29 L 10.2325,-30.9145 L 10.9164,-32.7178 L 12.0119,-34.305 L 13.4555,-35.5839 L 15.1632,-36.4801
 L 17.0357,-36.9417 L 18.9643,-36.9417 L 20.8368,-36.4801 L 22.5445,-35.5839 L 23.9881,-34.305 L 25.0836,-32.7178
 L 25.7675,-30.9145 L 26,-29 L 25.7675,-27.0855 L 25.0836,-25.2822 L 23.9881,-23.695 L 22.5445,-22.4161
 L 20.8368,-21.5199 L 18.9643,-21.0583 z
M 17.75,-34.4164 L 17.0449,-34.4164 L 15.25,-33.7631 L 13.7868,-32.5353 L 12.8317,-30.8811 L 12.5441,-29.25
 L 17.75,-29.25 z
M 23.1683,-30.8811 L 22.2132,-32.5353 L 20.75,-33.7631 L 18.9551,-34.4164 L 18.25,-34.4164 L 18.25,-29.25
 L 23.4559,-29.25 z
M 17.75,-28.75 L 12.5441,-28.75 L 12.8317,-27.1189 L 13.7868,-25.4647 L 15.25,-24.2369 L 17.0449,-23.5836
 L 17.75,-23.5836 z
M 20.75,-24.2369 L 22.2132,-25.4647 L 23.1683,-27.1189 L 23.4559,-28.75 L 18.25,-28.75 L 18.25,-23.5836
 L 18.9551,-23.5836 z
M 107.062,-5.3571 L 105.25,-6.13879 L 103.667,-7.31734 L 102.398,-8.82918 L 101.513,-10.5928 L 101.057,-12.5132
 L 101.057,-14.4868 L 101.513,-16.4072 L 102.398,-18.1708 L 103.667,-19.6827 L 105.25,-20.8612 L 107.062,-21.6429
 L 109.006,-21.9856 L 110.976,-21.8709 L 112.867,-21.3048 L 114.576,-20.318 L 116.011,-18.9637 L 117.096,-17.3148
 L 117.771,-15.4602 L 118,-13.5 L 117.771,-11.5398 L 117.096,-9.68521 L 116.011,-8.03632 L 114.576,-6.68196
 L 112.867,-5.69518 L 110.976,-5.12914 L 109.006,-5.01439 z
M 109.25,-19.4592 L 109.005,-19.4795 L 107.09,-18.9946 L 105.436,-17.9143 L 104.223,-16.3557 L 103.582,-14.4876
 L 103.582,-13.75 L 109.25,-13.75 z
M 115.175,-15.4482 L 114.235,-17.1853 L 112.782,-18.523 L 110.973,-19.3164 L 109.75,-19.4177 L 109.75,-13.75
 L 115.458,-13.75 z
M 110.973,-7.68361 L 112.782,-8.47701 L 114.235,-9.81473 L 115.175,-11.5518 L 115.458,-13.25 L 109.75,-13.25
 L 109.75,-7.58228 z
M 109.25,-7.54085 L 109.25,-13.25 L 103.582,-13.25 L 103.582,-12.5124 L 104.223,-10.6443 L 105.436,-9.08566
 L 107.09,-8.00537 L 109.005,-7.52051 z
M 11.8451,-18.0625 L 11.8451,-19.9725 L 11.5361,-19.9725 L 11.5361,-20.2385 L 11.8451,-20.2385 L 11.8451,-20.4925
 L 11.8781,-20.7573 L 11.9771,-20.9355 L 12.1441,-21.0367 L 12.3811,-21.0705 L 12.5216,-21.0645 L 12.6391,-21.0465
 L 12.6391,-20.7685 L 12.5528,-20.7805 L 12.4761,-20.7845 L 12.3553,-20.766 L 12.2731,-20.7105 L 12.2258,-20.6065
 L 12.2101,-20.4425 L 12.2101,-20.2385 L 12.6391,-20.2385 L 12.6391,-19.9725 L 12.2101,-19.9725 L 12.2101,-18.0625
 z
M 22.5772,-18.0625 L 22.5772,-18.3735 L 23.3062,-18.3735 L 23.3062,-20.5935 L 22.6602,-20.1105 L 22.6602,-20.4555
 L 23.3372,-20.9425 L 23.6742,-20.9425 L 23.6742,-18.3735 L 24.3702,-18.3735 L 24.3702,-18.0625 z
M 20.6163,-18.0625 L 20.6163,-18.3735 L 21.3453,-18.3735 L 21.3453,-20.5935 L 20.6993,-20.1105 L 20.6993,-20.4555
 L 21.3763,-20.9425 L 21.7133,-20.9425 L 21.7133,-18.3735 L 22.4093,-18.3735 L 22.4093,-18.0625 z
M 17.6508,-18.0718 L 17.3378,-18.2915 L 17.1465,-18.6568 L 17.0828,-19.1645 L 17.1465,-19.651 L 17.3378,-20.0085
 L 17.6473,-20.229 L 18.0658,-20.3025 L 18.7925,-20.005 L 19.0348,-19.1125 L 19.0348,-19.0625 L 17.4668,-19.0625
 L 17.5058,-18.7268 L 17.6228,-18.4775 L 17.8155,-18.3238 L 18.0798,-18.2725 L 18.294,-18.2983 L 18.4608,-18.3755
 L 18.5807,-18.4933 L 18.6548,-18.6385 L 18.9758,-18.5425 L 18.6533,-18.1345 L 18.0798,-17.9985 z
M 18.5975,-19.6538 L 18.4798,-19.8675 L 18.3018,-19.9913 L 18.0598,-20.0325 L 17.8213,-19.9865 L 17.6378,-19.8485
 L 17.5185,-19.63 L 17.4708,-19.3425 L 18.6568,-19.3425 z
M 15.5454,-18.0323 L 15.2756,-18.1335 L 15.0924,-18.3065 L 14.9866,-18.5555 L 15.3096,-18.6185 L 15.3814,-18.465
 L 15.5026,-18.3585 L 15.6771,-18.297 L 15.9086,-18.2765 L 16.1494,-18.2983 L 16.3156,-18.3635 L 16.4124,-18.4733
 L 16.4446,-18.6265 L 16.4221,-18.746 L 16.3546,-18.8405 L 16.2381,-18.9155 L 16.0666,-18.9765 L 15.8046,-19.0465
 L 15.5351,-19.1278 L 15.3566,-19.2075 L 15.2381,-19.2958 L 15.1486,-19.4005 L 15.0924,-19.5265 L 15.0736,-19.6785
 L 15.1271,-19.947 L 15.2876,-20.1425 L 15.5514,-20.2625 L 15.9126,-20.3025 L 16.2391,-20.2705 L 16.4906,-20.1745
 L 16.6654,-20.008 L 16.7616,-19.7645 L 16.4326,-19.7235 L 16.3769,-19.8525 L 16.2696,-19.9475 L 16.1139,-20.0068
 L 15.9126,-20.0265 L 15.6979,-20.0073 L 15.5476,-19.9495 L 15.4591,-19.8525 L 15.4296,-19.7155 L 15.4416,-19.6288
 L 15.4776,-19.5585 L 15.5381,-19.5018 L 15.6216,-19.4535 L 15.7704,-19.4023 L 16.0246,-19.3345 L 16.2746,-19.2633
 L 16.4426,-19.1975 L 16.5571,-19.1313 L 16.6446,-19.0585 L 16.7109,-18.9765 L 16.7596,-18.8825 L 16.7904,-18.7758
 L 16.8006,-18.6555 L 16.7419,-18.3765 L 16.5656,-18.1695 L 16.2844,-18.0413 L 15.9086,-17.9985 z
M 13.2614,-18.0435 L 13.0449,-18.1785 L 12.9197,-18.417 L 12.8779,-18.7725 L 12.8779,-20.2385 L 13.2459,-20.2385
 L 13.2459,-18.8435 L 13.2564,-18.6508 L 13.2879,-18.5065 L 13.3434,-18.4033 L 13.4239,-18.3335 L 13.5397,-18.2938
 L 13.6989,-18.2805 L 13.9349,-18.3258 L 14.1149,-18.4615 L 14.2297,-18.6775 L 14.2679,-18.9635 L 14.2679,-20.2385
 L 14.6329,-20.2385 L 14.6329,-18.5275 L 14.6359,-18.2208 L 14.6449,-18.0625 L 14.2999,-18.0625 L 14.2979,-18.0803
 L 14.2839,-18.4145 L 14.2779,-18.4145 L 14.1419,-18.2205 L 13.9859,-18.0925 L 13.8007,-18.022 L 13.5749,-17.9985
 z
M 15.5898,-5.50537 L 13.9363,-6.58566 L 12.7232,-8.14432 L 12.0818,-10.0124 L 12.0818,-11.9876 L 12.7232,-13.8557
 L 13.9363,-15.4143 L 15.5898,-16.4946 L 17.5045,-16.9795 L 19.4729,-16.8164 L 21.2817,-16.023 L 22.7348,-14.6853
 L 23.6749,-12.9482 L 24,-11 L 23.6749,-9.0518 L 22.7348,-7.31473 L 21.2817,-5.97701 L 19.4729,-5.18361
 L 17.5045,-5.02051 z
M 21.5418,-12.8589 L 20.2722,-14.2919 L 18.4821,-14.9708 L 18.25,-14.9426 L 18.25,-11.25 L 21.9384,-11.25
 z
M 17.75,-14.8819 L 16.5816,-14.7401 L 15.006,-13.6525 L 14.1162,-11.9573 L 14.1162,-11.25 L 17.75,-11.25
 z
M 20.2722,-7.70807 L 21.5418,-9.14111 L 21.9384,-10.75 L 18.25,-10.75 L 18.25,-7.05736 L 18.4821,-7.02917
 z
M 17.75,-10.75 L 14.1162,-10.75 L 14.1162,-10.0427 L 15.006,-8.34752 L 16.5816,-7.25995 L 17.75,-7.11807
 z
M 106.281,-2.0625 L 106.281,-5.0705 L 106.647,-5.0705 L 106.647,-4.2915 L 106.645,-4.16626 L 106.64,-4.03651
 L 106.631,-3.88551 L 106.637,-3.88551 L 106.767,-4.07251 L 106.92,-4.20151 L 107.108,-4.27725 L 107.339,-4.30251
 L 107.65,-4.25801 L 107.866,-4.12451 L 107.994,-3.88651 L 108.036,-3.5285 L 108.036,-2.0625 L 107.669,-2.0625
 L 107.669,-3.4575 L 107.658,-3.6595 L 107.626,-3.80151 L 107.57,-3.89951 L 107.486,-3.96751 L 107.37,-4.00726
 L 107.216,-4.02051 L 106.984,-3.97575 L 106.802,-3.84151 L 106.686,-3.6315 L 106.647,-3.35951 L 106.647,-2.0625
 z
M 103.104,-4.72151 L 103.104,-5.0705 L 103.47,-5.0705 L 103.47,-4.72151 z
M 102.202,-2.0625 L 102.202,-5.0705 L 102.568,-5.0705 L 102.568,-2.0625 z
M 21.4614,-2.11676 L 21.1524,-2.28401 L 20.9581,-2.55501 L 20.8934,-2.92001 L 20.9334,-3.18501 L 21.0534,-3.40401
 L 21.2366,-3.56226 L 21.4644,-3.64301 L 21.4644,-3.651 L 21.2551,-3.73926 L 21.0954,-3.89201 L 20.9941,-4.093
 L 20.9604,-4.326 L 21.0217,-4.62576 L 21.2054,-4.86301 L 21.4921,-5.01749 L 21.8624,-5.06898 L 22.2401,-5.01849
 L 22.5294,-4.867 L 22.7132,-4.63026 L 22.7744,-4.32201 L 22.7404,-4.08876 L 22.6384,-3.88701 L 22.4774,-3.73651
 L 22.2664,-3.65501 L 22.2664,-3.647 L 22.5099,-3.56401 L 22.6924,-3.40701 L 22.8071,-3.18976 L 22.8454,-2.92401
 L 22.7824,-2.561 L 22.5934,-2.28801 L 22.2867,-2.11775 L 21.8704,-2.061 z
M 22.0936,-3.81926 L 22.2594,-3.91 L 22.3606,-4.06851 L 22.3944,-4.302 L 22.2614,-4.67326 L 21.8624,-4.79701
 L 21.6351,-4.76601 L 21.4694,-4.673 L 21.3681,-4.51826 L 21.3344,-4.302 L 21.3691,-4.08151 L 21.4734,-3.92001
 L 21.6411,-3.82176 L 21.8664,-3.789 z
M 22.1351,-2.37225 L 22.3194,-2.48401 L 22.4289,-2.677 L 22.4654,-2.95801 L 22.4256,-3.20001 L 22.3064,-3.37401
 L 22.1164,-3.47975 L 21.8624,-3.51501 L 21.6146,-3.47726 L 21.4274,-3.36401 L 21.3104,-3.18475 L 21.2714,-2.94901
 L 21.4221,-2.48851 L 21.8744,-2.33501 z
M 115.024,-2.0625 L 115.024,-2.32051 L 115.14,-2.54726 L 115.277,-2.74551 L 115.43,-2.92151 L 115.59,-3.07951
 L 115.754,-3.22401 L 116.07,-3.48526 L 116.208,-3.6125 L 116.326,-3.74352 L 116.418,-3.88051 L 116.479,-4.0305
 L 116.499,-4.1985 L 116.465,-4.41251 L 116.361,-4.57251 L 116.196,-4.67226 L 115.977,-4.70551 L 115.764,-4.67375
 L 115.591,-4.57851 L 115.472,-4.42601 L 115.414,-4.2225 L 115.04,-4.25751 L 115.134,-4.56551 L 115.332,-4.80351
 L 115.619,-4.95576 L 115.977,-5.00648 L 116.36,-4.95476 L 116.642,-4.79951 L 116.817,-4.54875 L 116.875,-4.21051
 L 116.856,-4.04201 L 116.799,-3.87451 L 116.705,-3.7075 L 116.572,-3.54051 L 116.354,-3.32751 L 115.997,-3.02251
 L 115.787,-2.83876 L 115.625,-2.67351 L 115.507,-2.52051 L 115.426,-2.3735 L 116.919,-2.3735 L 116.919,-2.0625
 z
M 112.87,-2.0625 L 112.87,-2.3735 L 113.599,-2.3735 L 113.599,-4.59351 L 112.953,-4.1105 L 112.953,-4.45551
 L 113.63,-4.9425 L 113.967,-4.9425 L 113.967,-2.3735 L 114.663,-2.3735 L 114.663,-2.0625 z
M 108.683,-2.1235 L 108.573,-2.4985 L 108.573,-3.9725 L 108.319,-3.9725 L 108.319,-4.23851 L 108.587,-4.23851
 L 108.695,-4.7505 L 108.939,-4.7505 L 108.939,-4.23851 L 109.345,-4.23851 L 109.345,-3.9725 L 108.939,-3.9725
 L 108.939,-2.57651 L 108.952,-2.44101 L 108.99,-2.35251 L 109.061,-2.3045 L 109.17,-2.28851 L 109.259,-2.2955
 L 109.381,-2.31651 L 109.381,-2.0475 L 109.198,-2.01076 L 109.012,-1.9985 z
M 13.3049,-1.29301 L 13.3049,-3.86 L 13.3019,-4.13676 L 13.2929,-4.30101 L 13.6469,-4.30101 L 13.6572,-4.18701
 L 13.6669,-3.968 L 13.6749,-3.968 L 13.7884,-4.14626 L 13.9329,-4.26901 L 14.1192,-4.341 L 14.3559,-4.36501
 L 14.7107,-4.29601 L 14.9629,-4.089 L 15.1137,-3.73526 L 15.1639,-3.22401 L 14.9619,-2.35176 L 14.3559,-2.061
 L 13.9312,-2.1575 L 13.6729,-2.44701 L 13.6629,-2.44701 L 13.6689,-2.35626 L 13.6709,-2.11601 L 13.6709,-1.29301
 z
M 14.4932,-2.38176 L 14.6549,-2.53401 L 14.7487,-2.8065 L 14.7799,-3.216 L 14.7489,-3.61626 L 14.6559,-3.88301
 L 14.4954,-4.033 L 14.2619,-4.08301 L 14.0684,-4.05975 L 13.9219,-3.99001 L 13.8137,-3.871 L 13.7349,-3.70001
 L 13.6869,-3.47325 L 13.6709,-3.18701 L 13.7054,-2.80551 L 13.8089,-2.539 L 13.9902,-2.38301 L 14.2579,-2.33101
 z
M 18.5141,-2.125 L 18.5141,-3.79401 L 18.5111,-4.03526 L 18.5021,-4.30101 L 18.8481,-4.30101 L 18.8601,-4.01776
 L 18.8641,-3.87601 L 18.8721,-3.87601 L 18.9658,-4.11325 L 19.0731,-4.261 L 19.2103,-4.339 L 19.3941,-4.36501
 L 19.4676,-4.36 L 19.5421,-4.345 L 19.5421,-4.01001 L 19.4568,-4.02501 L 19.3471,-4.03001 L 19.1468,-3.981
 L 19.0001,-3.83401 L 18.9101,-3.5955 L 18.8801,-3.272 L 18.8801,-2.125 z
M 110.061,-2.03226 L 109.792,-2.13351 L 109.608,-2.3065 L 109.503,-2.55551 L 109.826,-2.61852 L 109.897,-2.46501
 L 110.019,-2.35851 L 110.193,-2.29701 L 110.425,-2.2765 L 110.665,-2.29826 L 110.832,-2.36351 L 110.928,-2.47325
 L 110.961,-2.62651 L 110.938,-2.746 L 110.871,-2.84052 L 110.754,-2.91551 L 110.583,-2.9765 L 110.321,-3.04651
 L 110.051,-3.12776 L 109.873,-3.2075 L 109.754,-3.29576 L 109.665,-3.40051 L 109.608,-3.5265 L 109.59,-3.67851
 L 109.643,-3.94701 L 109.804,-4.1425 L 110.067,-4.26251 L 110.429,-4.30251 L 110.755,-4.27051 L 111.007,-4.17451
 L 111.181,-4.00801 L 111.278,-3.76451 L 110.949,-3.72351 L 110.893,-3.85251 L 110.786,-3.94751 L 110.63,-4.00676
 L 110.429,-4.0265 L 110.214,-4.00726 L 110.064,-3.94951 L 109.975,-3.85251 L 109.946,-3.71552 L 109.958,-3.62875
 L 109.994,-3.5585 L 110.054,-3.50175 L 110.138,-3.45351 L 110.286,-3.40225 L 110.541,-3.3345 L 110.791,-3.26326
 L 110.959,-3.19751 L 111.073,-3.13126 L 111.161,-3.0585 L 111.227,-2.9765 L 111.276,-2.88251 L 111.306,-2.77576
 L 111.317,-2.6555 L 111.258,-2.37651 L 111.082,-2.16951 L 110.8,-2.04126 L 110.425,-1.9985 z
M 104.52,-1.26576 L 104.27,-1.37151 L 104.095,-1.54225 L 103.996,-1.77251 L 104.364,-1.8255 L 104.423,-1.69101
 L 104.525,-1.59151 L 104.67,-1.52925 L 104.854,-1.50851 L 105.264,-1.6575 L 105.4,-2.10451 L 105.4,-2.4335
 L 105.396,-2.4335 L 105.273,-2.244 L 105.111,-2.10751 L 104.916,-2.02576 L 104.689,-1.9985 L 104.339,-2.067
 L 104.095,-2.27251 L 103.953,-2.62601 L 103.905,-3.13651 L 103.956,-3.65601 L 104.109,-4.01851 L 104.367,-4.23151
 L 104.73,-4.30251 L 104.948,-4.27525 L 105.135,-4.19351 L 105.288,-4.06126 L 105.4,-3.88251 L 105.404,-3.88251
 L 105.406,-3.9615 L 105.412,-4.0825 L 105.42,-4.19301 L 105.428,-4.23851 L 105.775,-4.23851 L 105.766,-4.07275
 L 105.763,-3.7915 L 105.763,-2.1405 L 105.533,-1.45801 L 104.843,-1.23051 z
M 104.977,-2.29475 L 105.12,-2.3735 L 105.239,-2.50125 L 105.327,-2.67451 L 105.382,-2.88925 L 105.4,-3.14151
 L 105.382,-3.39851 L 105.327,-3.61751 L 105.239,-3.79475 L 105.121,-3.92451 L 104.979,-4.00401 L 104.819,-4.0305
 L 104.577,-3.97801 L 104.411,-3.82051 L 104.315,-3.54576 L 104.283,-3.14151 L 104.313,-2.74101 L 104.403,-2.47151
 L 104.566,-2.31926 L 104.813,-2.26851 z
M 15.8966,-2.125 L 15.2816,-4.30101 L 15.6426,-4.30101 L 16.0146,-2.82501 L 16.0441,-2.70175 L 16.1026,-2.42801
 L 16.1366,-2.57701 L 16.5956,-4.30101 L 16.9876,-4.30101 L 17.3716,-2.80901 L 17.4656,-2.42801 L 17.5286,-2.707
 L 17.9446,-4.30101 L 18.3016,-4.30101 L 17.6726,-2.125 L 17.2476,-2.125 L 16.8636,-3.66101 L 16.7906,-4
 L 16.7336,-3.74001 L 16.6111,-3.25125 L 16.3196,-2.125 z
M 103.104,-2.0625 L 103.104,-4.23851 L 103.47,-4.23851 L 103.47,-2.0625 z
" stroke="black" fill="white" stroke-width="0.3"/></svg>
