<?xml version="1.0" encoding="UTF-8" standalone="no"?>
<!-- Created with Inkscape (http://www.inkscape.org/) -->

<svg
   xmlns:dc="http://purl.org/dc/elements/1.1/"
   xmlns:cc="http://creativecommons.org/ns#"
   xmlns:rdf="http://www.w3.org/1999/02/22-rdf-syntax-ns#"
   xmlns:svg="http://www.w3.org/2000/svg"
   xmlns="http://www.w3.org/2000/svg"
   xmlns:sodipodi="http://sodipodi.sourceforge.net/DTD/sodipodi-0.dtd"
   xmlns:inkscape="http://www.inkscape.org/namespaces/inkscape"
   width="100mm"
   height="148.504mm"
   viewBox="0 0 99.999998 148.504"
   version="1.1"
   id="svg8"
   inkscape:version="0.92.4 5da689c313, 2019-01-14"
   sodipodi:docname="chemie_bw.svg">
  <defs
     id="defs2" />
  <sodipodi:namedview
     id="base"
     pagecolor="#ffffff"
     bordercolor="#666666"
     borderopacity="1.0"
     inkscape:pageopacity="0.0"
     inkscape:pageshadow="2"
     inkscape:zoom="0.24748737"
     inkscape:cx="-74.637349"
     inkscape:cy="282.34591"
     inkscape:document-units="mm"
     inkscape:current-layer="layer1"
     showgrid="false"
     inkscape:window-width="1362"
     inkscape:window-height="728"
     inkscape:window-x="0"
     inkscape:window-y="38"
     inkscape:window-maximized="0" />
  <metadata
     id="metadata5">
    <rdf:RDF>
      <cc:Work
         rdf:about="">
        <dc:format>image/svg+xml</dc:format>
        <dc:type
           rdf:resource="http://purl.org/dc/dcmitype/StillImage" />
        <dc:title></dc:title>
      </cc:Work>
    </rdf:RDF>
  </metadata>
  <g
     inkscape:label="Ebene 1"
     inkscape:groupmode="layer"
     id="layer1"
     transform="translate(0,-148.496)">
    <path
       style="fill:#000000;stroke-width:0.24752472"
       d="M 24.56683,288.04557 0,279.10237 V 213.79928 148.4962 H 49.999994 100 v 65.42139 65.42139 l -1.299509,0.44491 c -1.969356,0.67425 -4.704087,1.64818 -5.259895,1.87323 -0.272281,0.11025 -1.497528,0.55985 -2.722775,0.99913 -1.225248,0.43927 -3.230198,1.16453 -4.455445,1.61167 -1.225248,0.44714 -2.784654,1.00465 -3.465347,1.23889 -0.680694,0.23425 -1.588615,0.57942 -2.017608,0.76705 -0.428986,0.18762 -0.872166,0.34114 -0.98485,0.34114 -0.198713,0 -1.248935,0.37531 -5.908432,2.11145 -1.225248,0.45652 -3.675742,1.34514 -5.445546,1.97469 -1.769801,0.62956 -4.387379,1.5745 -5.816833,2.09987 -9.327424,3.42811 -11.658639,4.20908 -12.533773,4.19889 -0.617931,-0.007 -9.649356,-3.1757 -25.523157,-8.95433 z m 25.185645,-2.23866 v -7.98631 l -21.844061,0.0338 c -12.014232,0.0186 -21.9554441,0.0551 -22.0915829,0.0812 -0.1361387,0.026 0.4764849,0.30047 1.3613861,0.60981 0.8849012,0.30934 1.7759902,0.62663 1.9801977,0.70509 0.2042081,0.0785 0.7611387,0.2752 1.2376241,0.43719 0.476485,0.16201 2.091584,0.73338 3.589109,1.26973 1.497524,0.53634 3.391088,1.1938 4.20792,1.461 0.816832,0.26721 1.707921,0.58809 1.980198,0.71306 0.272277,0.12497 1.05198,0.41652 1.732673,0.64788 0.680693,0.23136 1.588616,0.57417 2.017606,0.7618 0.42899,0.18762 0.872171,0.34113 0.984849,0.34113 0.175399,0 2.585107,0.84883 4.175762,1.47094 0.272278,0.10648 1.21906,0.442 2.10396,0.74559 0.884902,0.30359 2.834159,0.99473 4.331684,1.53586 1.497524,0.54112 3.502475,1.25095 4.455445,1.5774 2.808869,0.96219 8.738992,3.13171 9.715345,3.55432 0.03403,0.0147 0.06188,-3.56705 0.06188,-7.95952 z M 97.029699,263.59519 V 252.70411 H 49.999994 2.9702971 v 10.89108 10.8911 H 49.999994 97.029699 Z m -15.513263,7.15965 c -2.080714,-0.39613 -3.23612,-1.26182 -4.435119,-3.32301 -0.676252,-1.16254 -0.719929,-1.40282 -0.719929,-3.96039 0,-3.06258 0.294192,-3.96378 1.844982,-5.65181 2.166784,-2.35852 6.538467,-2.81668 9.467343,-0.99219 0.970972,0.60485 2.177773,2.16543 2.177773,2.81619 0,0.40131 -2.182474,1.72384 -2.844721,1.72384 -0.205203,0 -0.3731,-0.17564 -0.3731,-0.39032 0,-0.21469 -0.325591,-0.71592 -0.723536,-1.11387 -0.643402,-0.6434 -0.892738,-0.72353 -2.251396,-0.72353 -2.580496,0 -3.708235,1.26605 -3.708235,4.16303 0,1.58902 0.365234,2.91151 0.972676,3.52196 0.714337,0.71789 2.377692,1.09118 3.441708,0.7724 1.134013,-0.33976 1.943592,-0.99192 2.06017,-1.65958 0.07523,-0.43083 -0.06595,-0.48867 -1.245595,-0.5101 -1.612492,-0.0293 -1.858938,-0.3428 -1.579164,-2.00889 l 0.198951,-1.18476 h 2.964239 2.964239 l 0.0675,4.37347 0.0675,4.37345 -0.924635,-0.0734 c -0.607112,-0.0481 -1.042637,-0.2511 -1.268293,-0.59096 l -0.343673,-0.5176 -1.026934,0.52649 c -1.119917,0.57416 -3.092591,0.75132 -4.782776,0.42954 z m -71.006499,-0.28916 c -0.06699,-0.17458 -0.09218,-3.4905 -0.05597,-7.36871 l 0.06584,-7.05128 1.670792,-0.0732 1.670792,-0.0732 v 5.69793 5.69793 l 3.774752,0.0683 3.774752,0.0683 v 1.60891 1.60891 l -5.389573,0.0667 c -4.204779,0.0521 -5.416349,-0.003 -5.51138,-0.2507 z M 23.0198,263.34767 v -7.42574 h 5.828141 5.82814 l -0.07319,1.67079 -0.07319,1.67079 -3.712871,0.0243 c -2.042079,0.0133 -3.858508,0.0412 -4.03651,0.0619 -0.223522,0.026 -0.300091,0.36304 -0.247525,1.08959 l 0.07611,1.05199 3.403465,0.0689 3.403466,0.0689 v 1.60193 1.60192 h -3.315102 c -3.653957,10e-6 -3.615592,-0.0173 -3.615592,1.62916 v 0.8461 h 4.207921 c 4.722832,0 4.246002,-0.22238 4.246002,1.98019 0,0.54456 -0.0086,1.10149 -0.01904,1.23763 -0.01213,0.15761 -2.176948,0.24752 -5.959634,0.24752 h -5.940593 v -7.42574 z m 13.973425,7.11316 c -0.06598,-0.17192 -0.09032,-3.48565 -0.05411,-7.36386 l 0.06584,-7.05128 h 1.732672 1.732674 l 0.06575,7.16122 c 0.05109,5.56424 -0.0041,7.20556 -0.247525,7.36007 -0.521121,0.33079 -3.160249,0.24577 -3.295294,-0.10615 z m 6.202923,0.0145 c -0.06264,-0.17643 -0.08895,-3.49529 -0.05848,-7.37524 l 0.0554,-7.05445 h 4.579207 c 4.25621,0 4.65165,0.0387 5.606245,0.54923 1.475012,0.78881 2.124945,1.96261 2.099202,3.79125 -0.04736,3.36208 -1.849557,4.68338 -6.397837,4.69057 l -2.281495,0.004 -0.06999,2.78465 -0.06999,2.78465 -1.67419,0.0733 c -1.201159,0.0526 -1.706369,-0.0174 -1.788074,-0.24752 z m 8.33139,-9.02251 c 0.248958,-0.22531 0.45266,-0.65721 0.45266,-0.95979 0,-0.94854 -0.628667,-1.21161 -2.917706,-1.22094 -2.08407,-0.008 -2.122788,0.003 -2.294899,0.6439 -0.09628,0.35889 -0.119408,0.94367 -0.05138,1.2995 0.121877,0.63757 0.154489,0.64698 2.241174,0.64698 1.622989,0 2.223204,-0.0957 2.570153,-0.40964 z m 5.073117,9.15552 c -0.367774,-0.36778 -0.16657,-2.97526 0.268155,-3.47509 0.238244,-0.27392 1.225332,-1.37698 2.193531,-2.45124 0.9682,-1.07426 2.453964,-2.76076 3.301698,-3.74776 l 1.541325,-1.79456 h -3.622911 -3.622908 l 0.07369,-1.54703 0.07369,-1.54702 h 5.940598 5.940596 v 1.503 c 0,1.46825 -0.02933,1.53409 -1.266953,2.84654 -0.696818,0.73894 -1.643596,1.78895 -2.103959,2.33336 -0.460357,0.54442 -1.242403,1.43551 -1.737884,1.9802 -1.137752,1.25079 -2.193187,2.5198 -2.193187,2.63703 0,0.0495 1.587254,0.0891 3.527232,0.088 l 3.527225,-0.002 0.07319,1.67079 0.07319,1.67079 h -5.910642 c -3.250864,0 -5.984915,-0.0743 -6.075673,-0.16502 z m 14.10892,0 c -0.09077,-0.0908 -0.16502,-3.43742 -0.16502,-7.43705 v -7.272 l 1.670792,0.0732 1.670792,0.0732 0.123763,7.23759 c 0.100644,5.88551 0.06217,7.26118 -0.205891,7.36386 -0.48203,0.18464 -2.90135,0.15435 -3.094436,-0.0387 z m -21.001767,-21.8028 c 0.07196,-0.50668 0.212697,-0.55693 1.560045,-0.55693 3.350396,0 8.111828,-1.77163 10.869618,-4.04437 3.570832,-2.94278 6.65346,-8.76291 7.795724,-14.71868 0.518757,-2.70478 0.903027,-8.19706 0.635939,-9.08929 -0.669274,-2.23578 -0.946606,-2.34567 -5.919879,-2.34567 h -3.93969 l -0.48998,-1.17574 c -0.640468,-1.53686 -1.623374,-2.67728 -2.886861,-3.34947 -1.486182,-0.79067 -4.827142,-0.78641 -6.171135,0.008 -0.518299,0.30631 -1.047388,0.55693 -1.17574,0.55693 -0.133565,0 -0.232469,-1.2968 -0.231262,-3.03218 l 0.0021,-3.03218 1.54491,-0.46844 c 1.854637,-0.56236 5.374614,-2.47322 7.669722,-4.16361 4.066266,-2.99489 7.761009,-8.37192 8.97315,-13.05881 0.292656,-1.13157 0.389735,-2.33046 0.33072,-4.08417 -0.07039,-2.09168 -0.192538,-2.71615 -0.776096,-3.96754 -0.932872,-2.00051 -2.336899,-3.37099 -4.470622,-4.36384 -1.611355,-0.74979 -2.01551,-0.83027 -4.612195,-0.91853 -3.055081,-0.10385 -5.561918,0.22356 -7.488081,0.978 l -1.175746,0.46051 v -1.23401 -1.23401 H 26.361496 2.970408 v 36.5924 c 0,20.12583 0.074826,36.66723 0.1662786,36.75868 0.091453,0.0915 10.5895954,0.13787 23.3292054,0.10314 l 23.16282,-0.0632 z m -4.696071,-3.50088 c -6.682517,-1.84507 -11.359843,-7.35138 -13.163596,-15.49664 -0.901475,-4.07082 -1.027896,-5.3079 -1.011811,-9.90098 0.01847,-5.26825 0.574502,-9.68686 1.700747,-13.5149 0.184253,-0.62626 0.262423,-1.24807 0.173715,-1.3818 -0.08871,-0.13372 -1.386537,-0.87823 -2.884061,-1.65447 -2.920137,-1.51364 -6.806931,-4.20091 -6.806931,-4.70621 0,-0.16952 0.667519,-0.85819 1.483375,-1.53037 0.815855,-0.67218 1.484172,-1.30569 1.485147,-1.4078 0.0035,-0.3652 0.636302,-0.17601 1.241929,0.37129 1.763185,1.59338 6.796829,4.38789 7.176603,3.9842 0.108376,-0.11519 0.548448,-1.04485 0.977938,-2.06589 1.84242,-4.38003 4.823505,-8.98365 7.661705,-11.83178 1.044554,-1.04821 2.213356,-2.12861 2.597337,-2.40089 0.38398,-0.27227 0.825036,-0.61372 0.980126,-0.75875 1.15646,-1.08155 5.343489,-2.8326 7.948458,-3.32412 2.311695,-0.43619 5.631893,-0.21841 7.196297,0.47202 8.114081,3.58105 3.353343,17.36463 -8.129983,23.53845 -3.968609,2.13364 -8.44646,3.0013 -13.663487,2.64751 -0.741079,-0.0502 -0.743423,-0.0461 -1.164572,2.0536 -0.91244,4.54916 -1.283025,11.65327 -0.820465,15.72829 0.81547,7.18403 3.106683,12.42355 6.433777,14.71264 1.612453,1.1094 3.127599,1.53121 5.439097,1.51425 2.228081,-0.0163 3.44735,-0.41825 5.266287,-1.73588 0.99134,-0.71813 3.038944,-3.21313 3.038944,-3.70296 0,-0.1306 0.09079,-0.27459 0.201743,-0.31997 0.249477,-0.10203 1.3294,-2.82932 1.845888,-4.66171 0.674704,-2.39371 0.937232,-4.01242 1.09339,-6.74167 l 0.152439,-2.66427 h 3.286554 c 3.849834,0 3.549586,-0.33005 3.265006,3.58911 -0.793448,10.92734 -5.321527,18.32283 -12.749058,20.82244 -2.614028,0.87971 -7.732481,1.06306 -10.252538,0.36726 z m -0.414288,-43.60943 c 2.143523,-0.4329 3.235988,-0.74634 4.336985,-1.24429 0.571125,-0.25831 1.138433,-0.46965 1.260688,-0.46965 0.444197,0 3.778673,-2.50769 5.01928,-3.77474 2.509075,-2.56257 4.439061,-6.25571 4.439061,-8.4944 0,-1.19388 -0.621061,-2.44751 -1.384963,-2.79557 -1.798954,-0.81966 -6.13674,0.22632 -8.46858,2.04205 -1.353396,1.05384 -3.92271,3.85321 -4.83479,5.26768 -1.979029,3.06912 -4.591234,8.93118 -4.235987,9.50598 0.19127,0.30948 2.250077,0.28976 3.868306,-0.0371 z m 5.155026,-7.85694 v -3.45098 l 1.300955,-0.98224 c 0.715523,-0.54023 1.634461,-1.15323 2.042081,-1.36222 1.103765,-0.56593 3.557438,-1.06207 3.84253,-0.77698 0.339589,0.33959 -0.261587,2.48378 -1.095204,3.90625 -0.84737,1.44592 -3.420407,4.20041 -4.948365,5.29733 l -1.141997,0.81983 z m -2.277035,43.62194 c -3.009572,-0.92596 -5.467782,-5.11357 -6.671517,-11.36508 -0.447587,-2.32451 -0.451468,-11.95638 -0.0058,-14.48019 0.486115,-2.75308 0.471428,-2.72233 1.233072,-2.58199 0.366773,0.0676 1.836411,-0.0226 3.265866,-0.20038 l 2.59901,-0.32326 0.0636,4.33747 c 0.03498,2.3856 0.131609,5.10708 0.214728,6.04773 l 0.151124,1.71026 0.828336,-1.67521 c 1.647897,-3.33267 2.628439,-4.0968 5.25706,-4.0968 1.893676,0 2.896551,0.64613 3.842263,2.4755 0.694047,1.34254 0.701814,1.40508 0.568635,4.57895 -0.214437,5.11037 -1.317619,9.28775 -3.235839,12.253 -2.135863,3.30171 -4.725059,4.36159 -8.110502,3.32 z M 97.029699,162.11006 V 151.46649 H 49.999994 2.9702971 v 10.64357 10.64356 H 49.999994 97.029699 Z m -50,7.83936 c -2.135475,-0.49612 -3.264449,-1.216 -4.29989,-2.74181 -0.96976,-1.42902 -0.867953,-1.72703 0.884245,-2.58844 1.52217,-0.74832 2.178022,-0.72607 2.178022,0.0739 0,0.16208 0.327428,0.60837 0.727616,0.99178 0.618369,0.59243 0.989018,0.7158 2.468601,0.82166 2.249185,0.16093 3.239424,-0.20659 3.239424,-1.2023 0,-0.81091 -0.754135,-1.31607 -2.360039,-1.58089 -1.977419,-0.32607 -4.412436,-0.90078 -4.917978,-1.16072 -1.534975,-0.78927 -2.375446,-2.26029 -2.375446,-4.1576 0,-2.22985 1.400468,-3.83574 3.96747,-4.54943 1.832018,-0.50935 2.856456,-0.51423 4.753563,-0.0226 2.140676,0.55471 3.4045,1.47354 4.279515,3.11134 0.341441,0.63908 0.322476,0.66749 -1.032653,1.54703 -1.583543,1.02779 -1.969833,1.09672 -2.193693,0.39142 -0.198608,-0.62578 -1.764328,-1.67045 -2.595981,-1.73208 -2.379802,-0.17638 -3.46535,0.22132 -3.46535,1.26954 0,0.56021 0.532817,0.80763 2.599008,1.20689 5.808701,1.12247 7.145818,2.13979 7.167632,5.45329 0.0056,0.8849 -0.146075,1.94888 -0.337561,2.36438 -0.389266,0.8447 -1.708554,1.87215 -2.941457,2.29076 -1.326614,0.45044 -4.257243,0.55956 -5.745048,0.21392 z m 16.955449,0.0786 c -2.116673,-0.45541 -2.402271,-0.586 -3.562261,-1.62894 -1.881075,-1.69125 -2.379958,-3.06663 -2.370935,-6.53654 0.0063,-2.5015 0.08011,-2.995 0.607294,-4.07142 0.637473,-1.30164 2.311151,-3.10679 2.880501,-3.10679 0.187788,0 0.341442,-0.0948 0.341442,-0.21056 0,-0.1158 0.859009,-0.41284 1.908923,-0.66009 2.125499,-0.50055 4.107092,-0.3292 5.870613,0.50765 1.608356,0.76321 3.332795,2.89476 3.013996,3.72554 -0.07336,0.19116 -0.762941,0.6545 -1.532421,1.02964 l -1.399047,0.68207 -0.403804,-0.61071 c -1.111791,-1.68147 -1.370481,-1.84019 -3.158616,-1.93805 -1.471517,-0.0805 -1.817351,-0.014 -2.566975,0.49409 -1.243623,0.84289 -1.706631,1.95455 -1.720784,4.13152 -0.02259,3.48157 1.285961,4.87849 4.385148,4.68114 1.382949,-0.0881 1.6929,-0.19861 2.19572,-0.78317 0.322006,-0.37435 0.58546,-0.89721 0.58546,-1.16189 0,-0.42317 -0.179215,-0.48125 -1.485144,-0.48125 -1.236221,0 -1.490953,-0.0726 -1.519777,-0.43317 -0.144083,-1.80249 -0.121511,-2.45391 0.09434,-2.72276 0.287548,-0.35814 6.259868,-0.44993 6.476424,-0.0995 0.218639,0.35378 0.20147,8.99445 -0.01824,9.19288 -0.113295,0.1023 -0.637732,0.13105 -1.165418,0.0639 -0.666282,-0.0848 -0.996525,-0.26401 -1.080849,-0.58646 -0.150882,-0.57698 -0.234128,-0.57623 -1.453509,0.0129 -1.167965,0.5643 -3.531526,0.80921 -4.92206,0.51003 z M 26.641119,169.8568 c -0.08578,-0.0858 -0.155973,-3.69437 -0.155973,-8.01907 v -7.8631 l 0.680694,-0.0783 c 0.374381,-0.0431 2.750264,-0.0226 5.279742,0.0454 4.598101,0.12374 4.599242,0.12391 5.5285,0.83313 1.390812,1.06148 1.875393,2.01709 1.876475,3.70047 9.82e-4,1.4208 -0.243436,2.18176 -0.916793,2.85512 -0.294294,0.2943 -0.270361,0.3964 0.164268,0.70083 0.789173,0.55276 1.2485,1.66815 1.2485,3.03176 0,2.75172 -1.363238,4.25662 -4.253344,4.69531 -1.74304,0.26459 -9.208175,0.34232 -9.452069,0.0984 z m 9.198554,-3.75882 c 0.727916,-0.38957 0.909371,-1.17594 0.437523,-1.89607 -0.383684,-0.58557 -0.496406,-0.60669 -3.23835,-0.60669 h -2.840828 v 1.34076 c 0,0.73741 0.110812,1.37788 0.24625,1.42326 0.590398,0.19782 4.930274,-0.0123 5.395405,-0.26126 z m -0.15372,-6.62528 c 0.248963,-0.22531 0.452658,-0.67654 0.452658,-1.00274 0,-0.90629 -1.240121,-1.3117 -3.750242,-1.22598 l -2.066589,0.0706 -0.07482,1.2839 -0.07482,1.2839 h 2.530575 c 2.007368,0 2.624163,-0.0847 2.983232,-0.40964 z"
       id="path4583"
       inkscape:connector-curvature="0" />
  </g>
</svg>
