<?xml version="1.0" encoding="UTF-8" standalone="no"?>
<!-- Created with Inkscape (http://www.inkscape.org/) -->

<svg
   xmlns:dc="http://purl.org/dc/elements/1.1/"
   xmlns:cc="http://creativecommons.org/ns#"
   xmlns:rdf="http://www.w3.org/1999/02/22-rdf-syntax-ns#"
   xmlns:svg="http://www.w3.org/2000/svg"
   xmlns="http://www.w3.org/2000/svg"
   xmlns:sodipodi="http://sodipodi.sourceforge.net/DTD/sodipodi-0.dtd"
   xmlns:inkscape="http://www.inkscape.org/namespaces/inkscape"
   version="1.1"
   id="svg869"
   width="538.66669"
   height="800"
   viewBox="0 0 538.66669 800"
   sodipodi:docname="chemie_bw_c1.svg"
   inkscape:version="0.92.4 5da689c313, 2019-01-14">
  <metadata
     id="metadata875">
    <rdf:RDF>
      <cc:Work
         rdf:about="">
        <dc:format>image/svg+xml</dc:format>
        <dc:type
           rdf:resource="http://purl.org/dc/dcmitype/StillImage" />
        <dc:title></dc:title>
      </cc:Work>
    </rdf:RDF>
  </metadata>
  <defs
     id="defs873" />
  <sodipodi:namedview
     pagecolor="#ffffff"
     bordercolor="#666666"
     borderopacity="1"
     objecttolerance="10"
     gridtolerance="10"
     guidetolerance="10"
     inkscape:pageopacity="0"
     inkscape:pageshadow="2"
     inkscape:window-width="1362"
     inkscape:window-height="728"
     id="namedview871"
     showgrid="false"
     inkscape:zoom="0.94929085"
     inkscape:cx="172.83745"
     inkscape:cy="500.41036"
     inkscape:window-x="0"
     inkscape:window-y="38"
     inkscape:window-maximized="0"
     inkscape:current-layer="svg869" />
  <path
     style="fill:#000000;stroke-width:1.33333337"
     d="m 285.66623,499.12887 c -35.99649,-9.9388 -61.1917,-39.59945 -70.90791,-83.47524 -4.85595,-21.92816 -5.53693,-28.59192 -5.45029,-53.33333 0.0995,-28.37827 3.09465,-52.1799 9.16136,-72.80024 0.9925,-3.37347 1.41358,-6.72294 0.93574,-7.44327 -0.47785,-0.72033 -7.46881,-4.73077 -15.53548,-8.91209 -15.7298,-8.1535 -36.66666,-22.62894 -36.66666,-25.35082 0,-0.91314 3.5957,-4.62276 7.99044,-8.24358 4.39474,-3.62084 7.99474,-7.03334 8,-7.58334 0.0188,-1.9672 3.42754,-0.94812 6.68985,2 9.49769,8.58302 36.61225,23.63608 38.65797,21.46158 0.58379,-0.62054 2.95431,-5.62824 5.26783,-11.12824 9.92451,-23.59379 25.98262,-48.39195 41.27106,-63.7339 5.62666,-5.64636 11.92261,-11.4661 13.99098,-12.93277 2.06838,-1.46667 4.4442,-3.30591 5.27962,-4.08719 6.22946,-5.8259 28.78359,-15.25824 42.81568,-17.9059 12.45235,-2.3496 30.33715,-1.1765 38.76407,2.54262 43.70785,19.2899 18.06335,93.53748 -43.79352,126.79376 -21.37755,11.49327 -45.49826,16.16704 -73.60065,14.2613 -3.99194,-0.27071 -4.00457,-0.24846 -6.27316,11.06208 -4.91501,24.50478 -6.91122,62.77228 -4.41957,84.72305 4.39267,38.698 16.73467,66.92148 34.65661,79.25209 8.68575,5.97596 16.84734,8.24815 29.2986,8.15675 12.00194,-0.0881 18.56973,-2.25299 28.36775,-9.35064 5.34002,-3.86829 16.36978,-17.30803 16.36978,-19.94655 0,-0.70353 0.48902,-1.47914 1.08672,-1.7236 1.34386,-0.54961 7.16104,-15.24062 9.94318,-25.1111 3.6344,-12.89407 5.04856,-21.61354 5.88972,-36.31507 l 0.82115,-14.3516 h 17.70355 c 20.73777,0 19.12044,-1.77787 17.58752,19.33333 -4.27407,58.86196 -28.66531,98.69906 -68.67494,112.16362 -14.08089,4.73868 -41.65229,5.72632 -55.227,1.97829 z M 283.4346,264.21936 c 11.54644,-2.33192 17.43119,-4.02026 23.36191,-6.70258 3.07643,-1.3914 6.13234,-2.52982 6.7909,-2.52982 2.39273,0 20.35445,-13.5081 27.03717,-20.3333 13.51555,-13.80367 23.91175,-33.6974 23.91175,-45.75647 0,-6.43108 -3.34546,-13.18396 -7.46032,-15.05881 -9.69039,-4.41524 -33.05659,1.2191 -45.61745,10.99982 -7.29028,5.67671 -21.13032,20.75594 -26.04338,28.37524 -10.66038,16.53235 -24.73146,48.10928 -22.81786,51.20555 1.03031,1.66708 12.12042,1.56084 20.83728,-0.19963 z m 15.50278,192.65414 c -16.21156,-4.98779 -29.45312,-27.54506 -35.93724,-61.21987 -2.411,-12.52136 -2.43191,-64.40505 -0.0315,-78 2.61853,-14.82991 2.53943,-14.66427 6.64215,-13.90829 1.97568,0.36402 9.89213,-0.12174 17.59213,-1.0794 l 14,-1.74127 0.34263,23.36448 c 0.18844,12.85047 0.70893,27.51016 1.15666,32.57711 l 0.81406,9.21262 4.46197,-9.0238 c 8.87668,-17.95198 14.15855,-22.06812 28.31806,-22.06812 10.20058,0 15.60276,3.48054 20.697,13.33472 3.73857,7.23182 3.7804,7.56868 3.06301,24.66528 -1.15509,27.52786 -7.09756,50.02998 -17.43036,66.00286 -11.5052,17.78521 -25.45235,23.4944 -43.6886,17.88368 z"
     id="path879"
     inkscape:connector-curvature="0" />
</svg>
