<?xml version="1.0" encoding="UTF-8" standalone="no"?>
<!-- Created with Inkscape (http://www.inkscape.org/) -->

<svg
   xmlns:dc="http://purl.org/dc/elements/1.1/"
   xmlns:cc="http://creativecommons.org/ns#"
   xmlns:rdf="http://www.w3.org/1999/02/22-rdf-syntax-ns#"
   xmlns:svg="http://www.w3.org/2000/svg"
   xmlns="http://www.w3.org/2000/svg"
   xmlns:sodipodi="http://sodipodi.sourceforge.net/DTD/sodipodi-0.dtd"
   xmlns:inkscape="http://www.inkscape.org/namespaces/inkscape"
   version="1.1"
   id="svg956"
   width="200mm"
   height="200mm"
   viewBox="0 0 755.90549 755.90549"
   sodipodi:docname="chemie_bw_c2.svg"
   inkscape:version="0.92.4 5da689c313, 2019-01-14">
  <metadata
     id="metadata962">
    <rdf:RDF>
      <cc:Work
         rdf:about="">
        <dc:format>image/svg+xml</dc:format>
        <dc:type
           rdf:resource="http://purl.org/dc/dcmitype/StillImage" />
        <dc:title></dc:title>
      </cc:Work>
    </rdf:RDF>
  </metadata>
  <defs
     id="defs960" />
  <sodipodi:namedview
     pagecolor="#ffffff"
     bordercolor="#666666"
     borderopacity="1"
     objecttolerance="10"
     gridtolerance="10"
     guidetolerance="10"
     inkscape:pageopacity="0"
     inkscape:pageshadow="2"
     inkscape:window-width="1362"
     inkscape:window-height="728"
     id="namedview958"
     showgrid="false"
     units="mm"
     inkscape:zoom="0.417193"
     inkscape:cx="189.0459"
     inkscape:cy="462.44846"
     inkscape:window-x="0"
     inkscape:window-y="38"
     inkscape:window-maximized="0"
     inkscape:current-layer="svg956" />
  <path
     style="fill:#000000;stroke-width:2.16595912"
     d="M 335.19599,670.09791 C 276.7208,653.95264 235.79196,605.76982 220.00827,534.49495 c -7.88834,-35.62162 -8.99457,-46.44669 -8.85383,-86.63835 0.16164,-46.09963 5.02717,-84.76464 14.88235,-118.26175 1.61229,-5.4801 2.29632,-10.92121 1.52008,-12.09137 -0.77625,-1.17015 -12.13285,-7.68499 -25.23691,-14.47741 -25.55257,-13.24511 -59.56386,-36.76002 -59.56386,-41.18163 0,-1.48337 5.8411,-7.50953 12.98022,-13.39144 7.13912,-5.88195 12.98721,-11.42545 12.99576,-12.3189 0.0305,-3.19566 5.56793,-1.5402 10.86745,3.24893 15.42871,13.94286 59.47548,38.39609 62.79869,34.86368 0.94835,-1.00805 4.79918,-9.1429 8.55743,-18.07748 16.12206,-38.32739 42.20796,-78.61124 67.04356,-103.53376 9.14034,-9.17234 19.36792,-18.62633 22.72792,-21.00889 3.36002,-2.38256 7.21947,-5.37035 8.57658,-6.63952 10.11957,-9.46399 46.75806,-24.78654 69.55276,-29.08758 20.22846,-3.816849 49.28176,-1.911189 62.97104,4.13041 71.00205,31.33585 29.34335,151.94876 -71.14123,205.97256 -34.72717,18.67047 -73.91053,26.26286 -119.56199,23.16705 -6.48479,-0.43976 -6.5053,-0.40362 -10.19056,17.97 -7.98428,39.80727 -11.22706,101.97164 -7.17945,137.62999 7.13575,62.86372 27.18495,108.71189 56.29859,128.74259 14.10974,9.70776 27.36799,13.39886 47.59468,13.25039 19.49678,-0.14312 30.16595,-3.65992 46.08253,-15.18983 8.6747,-6.28392 26.59221,-28.11636 26.59221,-32.40256 0,-1.14286 0.7944,-2.40281 1.76534,-2.79993 2.18306,-0.89283 11.63289,-24.75792 16.15239,-40.79221 5.90397,-20.94602 8.20123,-35.11053 9.56767,-58.99272 l 1.33393,-23.31373 h 28.75888 c 33.68787,0 31.06056,-2.88809 28.57038,31.4064 -6.94309,95.61944 -46.56591,160.33359 -111.56033,182.20635 -22.87397,7.69784 -67.66286,9.30223 -89.71456,3.21367 z m -3.62521,-381.60327 c 18.75683,-3.78813 28.31643,-6.53079 37.9507,-10.88814 4.99757,-2.26028 9.9618,-4.10961 11.03161,-4.10961 3.88692,0 33.06518,-21.9435 43.92105,-33.03082 21.9556,-22.42364 38.8439,-54.74039 38.8439,-74.32998 0,-10.44709 -5.43459,-21.41694 -12.11906,-24.46257 -15.74174,-7.17243 -53.69941,1.98039 -74.10414,17.86886 -11.84284,9.22165 -34.32556,33.71739 -42.30667,46.09471 -17.31746,26.85629 -40.1755,78.15205 -37.06691,83.18184 1.6737,2.70812 19.68925,2.53554 33.84952,-0.32429 z"
     id="path1509"
     inkscape:connector-curvature="0" />
</svg>
